<svg xmlns="http://www.w3.org/2000/svg" width="804.96" height="621.853" viewBox="0 0 804.96 621.853">
  <g id="Group_10040" data-name="Group 10040" transform="translate(-343.949 -86.288)">
    <g id="Group_10039" data-name="Group 10039" transform="translate(487.722 86.288)">
      <path id="Path_12417" data-name="Path 12417" d="M723.378,256.029h0A156.363,156.363,0,0,1,790.557,271.1l.027-104.865H597.653V287.273H476.579l.03,192.932,104.868-.027a157.023,157.023,0,0,1,141.9-224.149Z" transform="translate(-258.498 51.879)" fill="#4090d6"/>
      <path id="Path_12418" data-name="Path 12418" d="M813.9,346.572h0a156.991,156.991,0,0,0-89.8-141.9l-.022,82.015A127.045,127.045,0,0,1,597.043,413.727l-82.016.022A156.991,156.991,0,0,0,813.9,346.572Z" transform="translate(-192.048 118.308)" fill="#d1424c"/>
      <path id="Path_12419" data-name="Path 12419" d="M733.633,296.229l.022-82.015a156.363,156.363,0,0,0-67.179-15.068h0a157.023,157.023,0,0,0-141.9,224.149l82.016-.022A127.045,127.045,0,0,0,733.633,296.229Z" transform="translate(-201.595 108.763)" fill="#7fdede"/>
      <path id="Path_12420" data-name="Path 12420" d="M735.8,304.4V255.863A169.576,169.576,0,0,0,566.224,86.288h0A169.578,169.578,0,0,0,396.646,255.863v0A169.576,169.576,0,0,0,566.224,425.44h48.5L614.708,304.4Z" transform="translate(-396.646 -86.288)" fill="#7fdede"/>
      <rect id="Rectangle_4068" data-name="Rectangle 4068" width="121.082" height="121.041" transform="translate(218.072 218.111)" fill="#fff"/>
    </g>
    <path id="Path_12421" data-name="Path 12421" d="M665.784,92.652h0A100.375,100.375,0,0,0,565.41,193.026v28.71l71.648-.011V293.4h28.726A100.374,100.374,0,0,0,766.158,193.026h0A100.373,100.373,0,0,0,665.784,92.652Z" transform="translate(382.751 10.999)" fill="#d1424c"/>
    <path id="Rectangle_4069" data-name="Rectangle 4069" d="M26.6,0h91.959a26.6,26.6,0,0,1,26.6,26.6V145.166a0,0,0,0,1,0,0H26.6A26.6,26.6,0,0,1,0,118.562V26.6A26.6,26.6,0,0,1,26.6,0Z" transform="translate(343.949 397.816)" fill="#4090d6"/>
  </g>
</svg>
