<svg xmlns="http://www.w3.org/2000/svg" width="91.224" height="88.285" viewBox="0 0 91.224 88.285">
  <g id="Group_10123" data-name="Group 10123" transform="translate(-272.897 -253.941)">
    <path id="Path_12535" data-name="Path 12535" d="M325.453,292.623l-9.874,47.414-10.061-10.665c-15.289-16.163-15.312-42.373-.082-58.582.024-.035.058-.058.082-.093l.873-.92Z" transform="translate(2.921 2.189)" fill="#7fdede"/>
    <path id="Path_12536" data-name="Path 12536" d="M318.5,262.222l-37.78,40.005a29.474,29.474,0,0,1,0-40.005,25.691,25.691,0,0,1,37.78,0Z" transform="translate(0 0)" fill="#2e3463"/>
    <path id="Path_12537" data-name="Path 12537" d="M353.375,302.229l-37.8,40-10.061-10.665c-15.289-16.163-15.312-42.373-.082-58.582.024-.035.058-.058.082-.093l.873-.92,9.188-9.745a25.707,25.707,0,0,1,37.8,0A29.481,29.481,0,0,1,353.375,302.229Z" transform="translate(2.921)" fill="#d1424c"/>
  </g>
</svg>
