<svg xmlns="http://www.w3.org/2000/svg" width="117.23" height="89.984" viewBox="0 0 117.23 89.984">
  <g id="Group_10126" data-name="Group 10126" transform="translate(-556.805 -120.22)">
    <g id="Group_10124" data-name="Group 10124" transform="translate(644.617 140.327)">
      <path id="Path_12538" data-name="Path 12538" d="M651.707,156.834h0A12.186,12.186,0,1,0,634.475,139.6l-8.617,8.617,8.617,8.617A12.185,12.185,0,0,0,651.707,156.834Z" transform="translate(-625.858 -136.031)" fill="#4090d6"/>
    </g>
    <g id="Group_10125" data-name="Group 10125" transform="translate(556.805 120.22)">
      <path id="Path_12539" data-name="Path 12539" d="M589.591,160.129l4.732,4.732a17.956,17.956,0,0,0,21.214,3.114l-29.06-29.06A17.958,17.958,0,0,0,589.591,160.129Z" transform="translate(-549.328 -115.141)" fill="#7fdede"/>
      <path id="Path_12540" data-name="Path 12540" d="M619.254,169.476l17.427-17.427-30.122-30.122-17.426,17.427a18.143,18.143,0,0,0-3.116,4.176l29.06,29.06A18.174,18.174,0,0,0,619.254,169.476Z" transform="translate(-548.869 -119.756)" fill="#2e3463"/>
      <path id="Path_12541" data-name="Path 12541" d="M623.014,173.054A17.956,17.956,0,0,1,601.8,169.94l-4.732-4.732a17.958,17.958,0,0,1-3.114-21.214L570.18,120.22a45.671,45.671,0,0,0,0,64.585L582.2,196.828a45.669,45.669,0,0,0,64.585,0Z" transform="translate(-556.805 -120.22)" fill="#d1424c"/>
    </g>
  </g>
</svg>
