<svg xmlns="http://www.w3.org/2000/svg" width="101.727" height="101.729" viewBox="0 0 101.727 101.729">
  <g id="Group_10122" data-name="Group 10122" transform="translate(-280.36 -405.388)">
    <g id="Group_10121" data-name="Group 10121" transform="translate(280.36 405.388)">
      <g id="Group_10120" data-name="Group 10120">
        <path id="Path_12531" data-name="Path 12531" d="M377.335,466.859H361.414A19.646,19.646,0,0,0,341.771,486.5v15.86a35.142,35.142,0,0,1-34.733-35.142h35.154V432.067A35.131,35.131,0,0,1,377.335,466.859Z" transform="translate(-275.61 -400.638)" fill="#d1424c"/>
        <path id="Path_12532" data-name="Path 12532" d="M346.939,436.814V405.388H302.347a21.987,21.987,0,0,0-21.987,21.987v44.592h31.426A35.153,35.153,0,0,1,346.939,436.814Z" transform="translate(-280.36 -405.388)" fill="#7fdede"/>
        <path id="Path_12533" data-name="Path 12533" d="M342.19,432.065a35.152,35.152,0,0,0-35.153,35.153H342.19Z" transform="translate(-275.611 -400.639)" fill="#2e3463"/>
      </g>
      <circle id="Ellipse_36" data-name="Ellipse 36" cx="5.705" cy="5.705" r="5.705" transform="translate(10.949 13.086)" fill="#2e3463"/>
      <circle id="Ellipse_37" data-name="Ellipse 37" cx="5.705" cy="5.705" r="5.705" transform="translate(28.328 13.086)" fill="#2e3463"/>
      <circle id="Ellipse_38" data-name="Ellipse 38" cx="5.705" cy="5.705" r="5.705" transform="translate(45.706 13.086)" fill="#2e3463"/>
    </g>
    <path id="Path_12534" data-name="Path 12534" d="M372.086,461.6c.012.855-.013,1.723-.061,2.6a33.828,33.828,0,0,1-.638,4.832,31.336,31.336,0,0,1-.819,3.17c-.17.554-.362,1.109-.555,1.65s-.422,1.085-.638,1.627-.47,1.061-.723,1.579-.507,1.025-.783,1.531-.555,1.012-.855,1.494c-.591.988-1.242,1.928-1.917,2.844-.313.423-.639.832-.964,1.23a34.87,34.87,0,0,1-4.689,4.737c-.4.337-.8.662-1.193.964s-.807.6-1.217.892a.213.213,0,0,1-.085.06c-.409.29-.831.578-1.265.844-.385.253-.783.494-1.18.723a2.332,2.332,0,0,1-.373.217c-.362.205-.735.41-1.11.6a.369.369,0,0,1-.12.059,34.549,34.549,0,0,1-13.715,3.785c-.892.06-1.784.072-2.662.06v-15.86A19.646,19.646,0,0,1,356.165,461.6Z" transform="translate(9.999 10.008)" fill="#7fdede"/>
  </g>
</svg>
